<svg xmlns="http://www.w3.org/2000/svg" viewBox="0 0 760 560">
  <rect width="760" height="560" rx="36" fill="#101314"/>
  <circle cx="624" cy="96" r="124" fill="#D4FF3F" opacity=".13"/>
  <circle cx="104" cy="466" r="132" fill="#3D5CFF" opacity=".13"/>
  <rect x="54" y="56" width="652" height="448" rx="28" fill="#0B0E0A" stroke="#23262A" stroke-width="3"/>
  <rect x="90" y="96" width="580" height="52" rx="16" fill="#14171A"/>
  <circle cx="122" cy="122" r="7" fill="#D4FF3F"/>
  <circle cx="148" cy="122" r="7" fill="#3D5CFF"/>
  <circle cx="174" cy="122" r="7" fill="#9A9A95"/>
  <rect x="92" y="190" width="238" height="258" rx="24" fill="#14171A"/>
  <rect x="370" y="190" width="298" height="112" rx="24" fill="#14171A"/>
  <rect x="370" y="336" width="298" height="112" rx="24" fill="#14171A"/>
  <path d="M132 268h158M132 310h112M132 352h136" stroke="#D4FF3F" stroke-width="14" stroke-linecap="round"/>
  <path d="M412 238h180M412 274h118M412 386h210M412 422h142" stroke="#F5F5F2" stroke-width="13" stroke-linecap="round"/>
  <rect x="566" y="234" width="58" height="58" rx="18" fill="#3D5CFF"/>
  <rect x="588" y="378" width="48" height="48" rx="16" fill="#D4FF3F"/>
</svg>
