<svg xmlns="http://www.w3.org/2000/svg" viewBox="0 0 900 760">
  <defs>
    <linearGradient id="bg" x1="0" x2="1" y1="0" y2="1">
      <stop offset="0" stop-color="#14171A"/>
      <stop offset="1" stop-color="#080A08"/>
    </linearGradient>
    <linearGradient id="lime" x1="0" x2="1">
      <stop stop-color="#D4FF3F"/>
      <stop offset="1" stop-color="#7CFF6B"/>
    </linearGradient>
  </defs>
  <rect width="900" height="760" fill="url(#bg)"/>
  <circle cx="735" cy="115" r="170" fill="#D4FF3F" opacity=".12"/>
  <circle cx="85" cy="645" r="190" fill="#3D5CFF" opacity=".13"/>
  <rect x="56" y="64" width="788" height="560" rx="34" fill="#0B0E0A" stroke="#23262A" stroke-width="3"/>
  <rect x="88" y="98" width="724" height="54" rx="16" fill="#14171A"/>
  <circle cx="120" cy="125" r="7" fill="#D4FF3F"/>
  <circle cx="146" cy="125" r="7" fill="#3D5CFF"/>
  <circle cx="172" cy="125" r="7" fill="#9A9A95"/>
  <rect x="104" y="190" width="250" height="306" rx="24" fill="#101314" stroke="#23262A"/>
  <rect x="386" y="190" width="410" height="150" rx="24" fill="#101314" stroke="#23262A"/>
  <rect x="386" y="374" width="188" height="122" rx="24" fill="#101314" stroke="#23262A"/>
  <rect x="608" y="374" width="188" height="122" rx="24" fill="#101314" stroke="#23262A"/>
  <rect x="130" y="220" width="150" height="16" rx="8" fill="#F5F5F2"/>
  <rect x="130" y="254" width="190" height="12" rx="6" fill="#9A9A95" opacity=".75"/>
  <rect x="130" y="300" width="50" height="150" rx="16" fill="#D4FF3F"/>
  <rect x="200" y="270" width="50" height="180" rx="16" fill="#3D5CFF"/>
  <rect x="270" y="335" width="50" height="115" rx="16" fill="#F5F5F2"/>
  <path d="M430 296 C500 218 565 315 624 246 C670 192 725 229 760 206" fill="none" stroke="url(#lime)" stroke-width="11" stroke-linecap="round"/>
  <rect x="424" y="220" width="130" height="13" rx="7" fill="#F5F5F2"/>
  <rect x="424" y="250" width="86" height="10" rx="5" fill="#9A9A95"/>
  <rect x="420" y="417" width="88" height="14" rx="7" fill="#F5F5F2"/>
  <rect x="420" y="448" width="120" height="12" rx="6" fill="#D4FF3F"/>
  <rect x="642" y="417" width="76" height="14" rx="7" fill="#F5F5F2"/>
  <rect x="642" y="448" width="118" height="12" rx="6" fill="#3D5CFF"/>
  <rect x="160" y="555" width="580" height="34" rx="17" fill="#D4FF3F"/>
  <text x="450" y="579" text-anchor="middle" font-family="Arial, sans-serif" font-size="16" font-weight="900" fill="#0B0E0A">Production-ready dashboards, APIs, and web apps</text>
</svg>
